<svg xmlns="http://www.w3.org/2000/svg" viewBox="0 0 32 32">
  <circle cx="16" cy="16" r="16" fill="#2775CA"/>
  <!-- Dollar sign -->
  <path fill="#fff" d="M20.06 18.16c0-2.13-1.28-2.86-3.84-3.16-1.83-.23-2.2-.7-2.2-1.52 0-.82.61-1.36 1.83-1.36 1.1 0 1.71.35 2.01 1.29.06.17.21.29.4.29h.9c.22 0 .4-.18.4-.41v-.06c-.24-1.34-1.28-2.35-2.64-2.53v-1.46c0-.23-.18-.41-.41-.41h-.85c-.23 0-.41.18-.41.41v1.4c-1.71.23-2.79 1.4-2.79 2.84 0 2.01 1.22 2.8 3.78 3.09 1.71.29 2.26.7 2.26 1.64 0 .93-.82 1.58-1.96 1.58-1.52 0-2.07-.64-2.26-1.58-.04-.2-.21-.35-.43-.35h-.94c-.22 0-.4.18-.4.41v.06c.27 1.46 1.22 2.53 3.23 2.8v1.46c0 .23.18.41.41.41h.85c.23 0 .41-.18.41-.41v-1.44c1.74-.29 2.85-1.52 2.85-3.04z"/>
  <!-- Left arc -->
  <path fill="#fff" d="M13.37 23.21c-3.41-1.23-5.14-5.01-3.9-8.39.67-1.87 2.07-3.27 3.9-3.93.17-.06.28-.21.28-.41v-.76c0-.21-.19-.35-.39-.28-4.17 1.28-6.48 5.71-5.19 9.86a8.1 8.1 0 0 0 5.19 5.3c.06.02.12.03.18.03a.39.39 0 0 0 .31-.41v-.76c0-.18-.12-.34-.28-.35z"/>
  <!-- Right arc -->
  <path fill="#fff" d="M19.35 9.76c-.2-.07-.39.07-.39.28v.76c0 .18.11.34.28.41 3.41 1.23 5.14 5.01 3.9 8.39a7.94 7.94 0 0 1-3.9 3.93.41.41 0 0 0-.28.41v.76c0 .21.19.35.39.28 4.17-1.28 6.48-5.71 5.19-9.86a8.1 8.1 0 0 0-5.19-5.36z"/>
</svg>
