<svg xmlns="http://www.w3.org/2000/svg" viewBox="0 0 32 32">
  <circle cx="16" cy="16" r="16" fill="#2775CA"/>
  <path d="M20.022 18.124c0-2.124-1.276-2.852-3.829-3.15-1.828-.233-2.193-.7-2.193-1.518 0-.817.61-1.351 1.828-1.351 1.097 0 1.706.35 2.011 1.284.061.175.213.291.396.291h.9a.4.4 0 0 0 .4-.408v-.058c-.244-1.343-1.28-2.352-2.633-2.527v-1.46a.41.41 0 0 0-.41-.41h-.853a.41.41 0 0 0-.41.41v1.4c-1.705.234-2.786 1.4-2.786 2.841 0 2.007 1.218 2.793 3.77 3.092 1.707.291 2.253.7 2.253 1.634 0 .934-.822 1.576-1.95 1.576-1.522 0-2.07-.641-2.253-1.576-.04-.2-.213-.35-.426-.35h-.944a.4.4 0 0 0-.4.408v.058c.274 1.46 1.218 2.527 3.22 2.8v1.46c0 .233.182.41.41.41h.852c.228 0 .41-.177.41-.41V22.16c1.736-.291 2.847-1.518 2.847-3.036z" fill="#fff"/>
  <path d="M13.368 23.22c-3.403-1.226-5.13-5.01-3.892-8.39.67-1.868 2.07-3.267 3.892-3.928a.41.41 0 0 0 .274-.408v-.758a.395.395 0 0 0-.487-.38c-4.163 1.284-6.477 5.71-5.185 9.86a8.104 8.104 0 0 0 5.185 5.303.18.18 0 0 0 .183.03.395.395 0 0 0 .304-.41v-.758c0-.18-.122-.34-.274-.361zm5.977-13.476a.395.395 0 0 0-.487.38v.758c0 .175.122.34.274.361 3.403 1.226 5.13 5.01 3.892 8.39a7.94 7.94 0 0 1-3.892 3.928.41.41 0 0 0-.274.408v.758a.395.395 0 0 0 .487.38c4.163-1.284 6.477-5.71 5.185-9.86a8.104 8.104 0 0 0-5.185-5.303z" fill="#fff"/>
</svg>
